# xmcd
#
# Track frame offsets:
#        150
#        16717
#        33025
#        54160
#        71295
#        86932
#        102750
#        116885
#        131020
#        148272
#
# Disc length: 2190 seconds
#
# Revision: 0
# Processed by: cddbd v1.5.1PL0 Copyright (c) Steve Scherf et al.
# Submitted via: ExactAudioCopy v0.95a5
#
DISCID=80088c0a
DTITLE=Little Richard and Masayoshi Takanaka - Little Richard Meets Taka
DTITLE=naka
DYEAR=1992
DGENRE=JPop
TTITLE0=Good Golly Miss Molly
TTITLE1=Tutti Frutti
TTITLE2=Miss Ann
TTITLE3=Lucille
TTITLE4=Long Tall Sally
TTITLE5=Send Me Some Lovin'
TTITLE6=Jenny Jenny
TTITLE7=Rip It Up
TTITLE8=Kansas City - Hey Hey Hey Hey
TTITLE9=Ready Teddy
EXTD=
EXTT0=
EXTT1=
EXTT2=
EXTT3=
EXTT4=
EXTT5=
EXTT6=
EXTT7=
EXTT8=
EXTT9=
PLAYORDER=
